<?xml version="1.0" encoding="utf-8"?>
<!-- Generator: Adobe Illustrator 19.1.1, SVG Export Plug-In . SVG Version: 6.00 Build 0)  -->
<svg version="1.1" id="Слой_1" xmlns="http://www.w3.org/2000/svg" xmlns:xlink="http://www.w3.org/1999/xlink" x="0px" y="0px"
	 viewBox="0 0 172.3 57.1" style="enable-background:new 0 0 172.3 57.1;" xml:space="preserve">
<style type="text/css">
	.st0{clip-path:url(#SVGID_2_);fill:#FDC305;}
	.st1{clip-path:url(#SVGID_2_);fill:#F06351;}
	.st2{clip-path:url(#SVGID_2_);fill:#E55645;}
	.st3{clip-path:url(#SVGID_2_);}
	.st4{clip-path:url(#SVGID_2_);fill:#111111;}
	.st5{clip-path:url(#SVGID_2_);fill:#444444;}
</style>
<g>
	<defs>
		<rect id="SVGID_1_" y="0" width="172.3" height="57.1"/>
	</defs>
	<clipPath id="SVGID_2_">
		<use xlink:href="#SVGID_1_"  style="overflow:visible;"/>
	</clipPath>
	<path class="st0" d="M59.6,21.7C54.2,8.7,39.3,2.6,26.3,8c-13,5.4-19.1,20.4-13.7,33.4c3.6,8.5,11.3,14.1,19.8,15.4
		c-0.6-2.1-1.2-4.4-1.7-6.8c1.5,1,3.1,1.8,4.7,2.5c0,0,0,0,0,0c0,0,0.1,2.1,0.3,4.5c1.8,0,3.5-0.1,5.3-0.5c0-0.2,0-0.4,0-0.8
		c0.3-1.9,1.1-5.2,1.2-7.4c1.1-1.1,2.1-2.3,2.9-3.7c0,0,0,0,0,0c0,0.1,0,0.3-0.1,0.4c-0.6,4.2-1.7,8.8-2.4,10
		c-0.2,0.4-0.5,0.9-0.8,1.1c1.4-0.3,2.7-0.8,4-1.3C58.9,49.7,65.1,34.7,59.6,21.7 M58.2,25.5c-0.4,0.4-1.3,0.7-1.5-0.6
		c-0.1-1.3-0.2-2.2-0.2-2.2s-1.9-3.4-2.6-3.5c-0.7,0-5.8,3.5-7.2,4.9c-1.2,1.3-1.4,1.2-1.4,3.5c0,1.7,0.2,8.1,0.1,13.1
		c0,0-2.2,0.6-8.1,2.2c-5.9,1.6-7.8,1.8-7.8,1.8l-1-5.8c0,0,0,0,0,0c0,0,0,0,0,0c0,0,0,0,0,0c0,0,0,0,0,0c0,0,0,0,0,0l-2.6-13.1
		c0,0-3.8-1.4-5.2-1.8c-1.4-0.4-2.3-0.7-4,0.6c-1.8,1.3-1.7,3.8-1.7,3.8s0.4,1,0.5,1.4c0,0.5-1.2,0.4-2,0.4c-0.8,0-0.9-1.4-0.3-3.1
		c0.6-1.7,1.9-3.7,1.9-3.7s1.2-2.3,2.1-2.9c0,0,0.1-0.3,1.2-0.2c1.1,0.1,7.2,0.4,7.2,0.4l0.1-2.3c6.7-0.9,13.4-1.4,20.2-1.3
		c0,0.6,0,1.2-0.1,1.8c0,0,4.4-2,8.1-2c0,0,0.4,0,0.8,0.4c0.3,0.4,2.4,3,2.6,3.4c0.2,0.4,1.2,1.7,1.8,3C59,23.7,58.6,25.1,58.2,25.5
		"/>
	<path class="st1" d="M56.2,19.4c0.5,0.6,0.9,1.1,1,1.3c0.2,0.4,1.2,1.7,1.8,3c0,0-0.4,1.3-0.9,1.8c-0.4,0.4-1.3,0.7-1.5-0.6
		c-0.1-1.3-0.2-2.2-0.2-2.2s-1.9-3.4-2.6-3.5c-0.7,0-5.8,3.5-7.1,4.9c-1.2,1.3-1.4,1.2-1.4,3.5c0,1.5,0.2,6.6,0.1,11.2
		c1.8,0.2,4.4,0.7,5.2,1.9c0,0-0.3-7.1,7.8-3.4c0,0,0.3-9.7,11.4-7.2C69.9,30.1,64.2,23.1,56.2,19.4"/>
	<path class="st1" d="M45.7,17.1c0.1-8.5-1.4-16.5-1.4-16.5s-0.1-1.3-0.9-0.2c-0.7,1.1-1.2,3.9-1.2,3.9c-7.4-0.4-12.8,0.3-12.8,0.3
		c-0.8-2.7-2.2-3.9-2.9-3.6c-0.7,0.3-0.7,3.3-0.7,3.3l-0.3,14.1C32.2,17.5,39,17.1,45.7,17.1"/>
	<path class="st2" d="M45.2,44.8c0.1-1.1,0.2-2.5,0.2-4c0,0-2.2,0.6-8.1,2.2c-5.9,1.6-7.8,1.8-7.8,1.8l1.1,5c0,0.1,0,0.2,0.1,0.3
		c1.5,1,3.1,1.8,4.7,2.5c4.4-2.2,6.8-4.1,6.8-4.1c0,0,0,0,0,0.1C43.4,47.4,44.4,46.1,45.2,44.8"/>
	<path class="st3" d="M31.9,14c0-0.1,1,0.7,1.4,0.9c0.4,0.2,0.6,0.4,0.6,0.6s-0.3,0.3-0.6,0.3s-0.9-0.1-1-0.3c0,0,0.6,0,0.9,0h0.3
		C33.5,15.6,32.1,14.5,31.9,14"/>
	<path class="st3" d="M39.3,14.1c0,0-1,1.3-1.1,1.3c0,0.1-0.2,0.3,0.2,0.3c0.3,0,1.1-0.2,1.2-0.3c0.1-0.1,0.1-0.2-0.1-0.2
		c-0.2,0-0.7,0-1,0.1L39.3,14.1C39.4,14.1,39.4,14,39.3,14.1"/>
	<path class="st3" d="M36.2,20.2c0,0,0.8-0.4,1.1-1c0.3-0.7,0-0.9-0.4-1c-0.5-0.1-1.3,0-1.7,0.3c-0.4,0.4-0.3,0.7-0.1,1
		C35.3,19.7,35.9,20.1,36.2,20.2"/>
	<path class="st1" d="M35.8,21.4c0,0-0.2,0.4-0.5,0.6c-0.2,0.2-0.6,0.4-1,0.4c-0.6,0-1.1-0.2-1.5-0.4c-0.2-0.1-0.4-0.3-0.5-0.4
		c-0.2-0.2-0.4-0.3-0.4-0.3s0.7,4.1,2.6,4.7c1.8,0.6,2.1-0.7,2.2-1.1c0-0.3,0-2.1-0.8-3.2C35.9,21.4,35.9,21.6,35.8,21.4"/>
	<path class="st3" d="M34.2,22.6L34.2,22.6c-1.3,0-2.3-1.4-2.3-1.4c0-0.1,0-0.2,0-0.2c0.1,0,0.2,0,0.2,0c0,0,1,1.3,2.1,1.3h0
		c0.6,0,1.1-0.3,1.6-1l0.1-0.2l0.1,0.2c0,0,0.4,0.8,1,0.8c0.5,0,1.1-0.4,1.6-1.3c0-0.1,0.1-0.1,0.2,0c0.1,0,0.1,0.1,0,0.2
		c-0.6,1-1.3,1.4-1.9,1.4c-0.6,0-0.9-0.5-1.1-0.8C35.4,22.3,34.8,22.6,34.2,22.6"/>
	<path class="st4" d="M41.1,29.2l-3.1,1.3l1.1-5.6l-7.5,9.7l3.1-1.3l-1.1,5.6L41.1,29.2z M33.7,33l4.1-5.4l-0.8,4l2-0.8l-4.1,5.4
		l0.8-4L33.7,33z"/>
	<path class="st1" d="M45.7,18.9c0,0-2.5,2.2-5.1,5.2c-2.5,2.9-5.3,4.9-5.3,4.9c-0.2-0.5-1.6-1.5-1.6-1.5s-3.1-2.1-5.2-3.8
		c-1.2-1-2.3-2.2-3.1-3c-0.3,0-1.1-0.1-2-0.1c4.7,7,12,8.8,12,8.8c0.9-0.1,3.3-1.9,5.1-3.3c1.8-1.4,4.8-4.5,5.9-5.9
		c0.6-0.7,0.9-1.4,1.1-2C46.4,18.6,45.7,18.9,45.7,18.9"/>
	<path class="st1" d="M25.8,25.7c0,0-3.8-1.4-5.2-1.8c-1.4-0.4-2.3-0.7-4,0.6c-1.8,1.3-1.7,3.8-1.7,3.8s0.4,1,0.5,1.4
		c0,0.5-1.2,0.4-2,0.4s-0.9-1.4-0.3-3.1c0.6-1.7,1.9-3.7,1.9-3.7c-5.4,2.8-15,9.4-15,9.4s2.9-0.3,8.2,0.2c5.2,0.5,4.9,4.7,4.9,4.7
		s3.5-1,5.6-1.1s2.3,2.1,2.3,2.1l0.5,3.8c0,0,0.5-0.6,2.6-2.4c1.9-1.5,3.9-1.4,4.4-1.3L25.8,25.7z"/>
	<path class="st4" d="M89.6,37.1c-0.7-0.9-1-2.1-1-3.7v-5.3c0-1.6,0.3-2.9,1-3.7c0.7-0.8,1.8-1.3,3.4-1.3c1.5,0,2.6,0.4,3.2,1.1
		c0.6,0.7,0.9,1.8,0.9,3.2v1.3h-2.9v-1.4c0-0.4,0-0.8-0.1-1.1c0-0.3-0.2-0.5-0.3-0.7c-0.2-0.2-0.5-0.3-0.8-0.3
		c-0.6,0-0.9,0.2-1.1,0.5c-0.2,0.4-0.2,0.9-0.2,1.6v6.8c0,0.7,0.1,1.2,0.3,1.6c0.2,0.3,0.5,0.5,1,0.5c0.5,0,0.8-0.2,1-0.5
		c0.1-0.3,0.2-0.9,0.2-1.6v-1.5h2.9v1.2c0,1.4-0.3,2.5-0.9,3.3c-0.6,0.8-1.7,1.2-3.2,1.2C91.3,38.4,90.2,38,89.6,37.1"/>
	<path class="st4" d="M101.1,23.3h3.4l2.9,14.9h-2.8l-0.6-3.3h-2.4l-0.6,3.3h-2.9L101.1,23.3z M103.7,33l-0.9-6l-0.9,6H103.7z"/>
	<polygon class="st4" points="109.5,25.5 107.2,25.5 107.2,23.3 114.8,23.3 114.8,25.5 112.6,25.5 112.6,38.2 109.5,38.2 	"/>
	<polygon class="st5" points="120.8,23.3 126.6,23.3 126.6,24.8 122.9,24.8 122.9,29.8 125.9,29.8 125.9,31.2 122.9,31.2 
		122.9,36.7 126.6,36.7 126.6,38.2 120.8,38.2 	"/>
	<polygon class="st5" points="128.3,23.3 129.7,23.3 133.9,33.2 133.9,23.3 135.7,23.3 135.7,38.2 134.4,38.2 130.1,28 130.1,38.2 
		128.3,38.2 	"/>
	<polygon class="st5" points="138,23.3 143.8,23.3 143.8,24.8 140.1,24.8 140.1,29.8 143.1,29.8 143.1,31.2 140.1,31.2 140.1,36.7 
		143.8,36.7 143.8,38.2 138,38.2 	"/>
	<path class="st5" d="M145.5,23.3h3c1.5,0,2.6,0.3,3.3,0.9c0.7,0.6,1.1,1.6,1.1,3c0,1.9-0.6,3.1-1.8,3.5l2.1,7.5h-2l-2-7h-1.6v7
		h-2.1V23.3z M148.4,29.7c0.9,0,1.5-0.2,1.9-0.5c0.4-0.4,0.6-1,0.6-1.9c0-0.6-0.1-1.1-0.2-1.4c-0.1-0.4-0.4-0.6-0.7-0.8
		c-0.3-0.2-0.8-0.2-1.5-0.2h-0.9v4.9H148.4z"/>
	<path class="st5" d="M155.7,37.1c-0.6-0.9-0.9-2.1-0.9-3.8v-5c0-1.2,0.1-2.1,0.4-2.8c0.2-0.7,0.7-1.3,1.2-1.7
		c0.6-0.4,1.4-0.6,2.4-0.6c1.4,0,2.4,0.3,3,1c0.6,0.7,0.9,1.8,0.9,3.3v0.6h-2v-0.5c0-0.7,0-1.3-0.1-1.6c-0.1-0.4-0.3-0.7-0.5-0.9
		c-0.3-0.2-0.7-0.3-1.2-0.3c-0.6,0-1,0.1-1.3,0.4c-0.3,0.3-0.5,0.6-0.5,1.1c-0.1,0.4-0.1,1-0.1,1.8v5.5c0,1.1,0.1,2,0.4,2.5
		c0.3,0.5,0.8,0.7,1.6,0.7c0.8,0,1.3-0.3,1.6-0.8c0.3-0.5,0.4-1.4,0.4-2.6v-1H159v-1.5h3.8v7.4h-1.3l-0.2-1.7
		c-0.5,1.3-1.4,1.9-2.7,1.9C157.3,38.4,156.3,38,155.7,37.1"/>
	<polygon class="st5" points="167.1,32.9 163.9,23.3 165.8,23.3 168.1,30.5 170.3,23.3 172.3,23.3 169.1,32.9 169.1,38.2 
		167.1,38.2 	"/>
</g>
</svg>
